<?xml version="1.0" encoding="UTF-8"?><svg id="Layer_1" xmlns="http://www.w3.org/2000/svg" viewBox="0 0 763.37 695"><defs><style>.cls-1{fill:none;}.cls-2{fill:#00aeef;}.cls-3{fill:none;}</style></defs><path class="cls-3" d="M608.07,681.61l15.36.32,71.71.39c6.26.03,11.84-.35,18.11-.74,4.25-.26,9.89-1.06,11.99-5.37,4.27-8.78.73-19.08-6.77-25.3-10.56-8.77-22.27-15.31-33.38-23.31l-15.26-10.99c-5.39-3.88-10.41-9.42-16.9-11.63-14.16-4.83-36.29-3.88-51.53-2.92-7.72.49-18.95.16-21.51,7.42-.6,1.71-.51,5.99,1.11,6.92,4.79,2.76,10,3.4,15.24,4.01l12.84,1.48,17.2,1.97c14.33,1.64,17.47,4.19,28.36,12.8l10.15,8.03c3.04,2.4,6.82,3.6,7.48,8.14l-16.04.83-18.49.39-32.15.63-102.15.71-64.73.41-26.31,1.16-133.35.78-94.86.1-33.42-.65c-1.1-.02-3.59-1.55-3.13-2.35.36-.64,1.62-1.92,2.29-2.28l15-8.07c9.41-5.06,18.74-9.34,28.68-13.3,10.19-4.06,20.66-5.01,31.59-5.41l28.07-1.03c14.02-.51,27.65-.5,41.74-.02,41.12,1.38,91.71-2.35,129.5-.03l33.85,2.08c21.91,1.35,43.95.53,64.95-5.26,10.43-2.87,18.83-7.85,25.32-15.94l8.95-11.15c15.9-19.8,34.86-34.78,60.51-40.17,7.48-1.57,15.81-2.43,21.04-8.95,2.32-2.9,4.92-5.88,7.94-8.33,11.91,7.85,24.46,11.12,38.38,12.02,17.29,1.11,35.32,5.39,47.76,18.21,6.56,6.76,15.41,10.64,24.03,3.82,8.02-6.36,6.31-21.31,4.94-30.58-3.14-21.33-10.79-40.91-24.23-57.99-6.58-8.36-25.23-27.59-33.86-32.63l-11.63-6.8c-19.67-11.5-19.57-13.11-24.02-37.85l-3.81-21.24-1.62-12.4c-4.9-37.64-15.1-73.67-30.23-108.72-11.61-26.9-26.82-51.36-42.58-75.85-9.05-14.06-27.72-35.32-40.06-46.07-4.81-4.19-9.24-8.74-14.24-12.56-14.49-11.06-27.22-22-25.99-41.71,1.92-30.88,27.28-31.39,33.95-57.98,2.55-10.15-4.51-19.83-13.07-24.23-9.77-5.01-23.46-5.47-34.55-2.92-17.8,4.09-35.26,8.87-51.79,16.59-17.79,8.31-32.92,23.47-49.04,29.3-18.24,6.6-32.61,4.78-51.35,3.07-21.91-1.99-59.87-1.18-81.84,2.16-47.48,7.21-93.35,18.35-132.59,46.95l-20.94,15.26c-19.83,14.45-31.03,26.82-43.88,48.04-7.48,12.35-12.1,26.18-15.35,40.32-1.45,6.33-1.23,13.21-4.29,19.02-3.39,6.44-9.6,10.93-15.2,15.49l-13.13,10.7c-18.81,15.33-23.51,45.15-5.58,59.84,7.01,5.74,16.45,8.92,25.56,8.84,5.53-.05,11.15-1.25,16.43-2.32,14.43-2.94,28.1-6.89,41.4-13.18,29.96-14.16,45.38-17.25,77.82-20.53l54.13-5.48c7.21-.73,13.48,1.1,19.4,4.7,3.5,2.13,7.53,4.5,10.18,7.68l14.17,17c7.08,8.49,14.57,16.01,23.86,22.07l6.05,3.95c14.17,9.25,29.48,14.58,46.02,17.94,12.89,2.62,32.49,5.7,45.16,4.54,7.14-.65,10.48-7.55,10.44-13.83-.03-5.66-.97-10.53-4.02-15.28l-12.26-19.15c-3.73-5.83-7.95-10.87-8.29-18.92,26.58-4.79,96.32,22.89,119.34,36.29s44.49,32.1,61.32,53.24l12.51,15.71c4.86,6.1,9.51,12.15,12.79,19.27,3.5,7.61,8.13,14.74,7.97,23.69-.34,19.06-28,40.94-38.59,58.03-5.22,8.42-8.72,18.23-11.14,27.77-1.73,6.82-5.5,25.28-5.71,31.15l-.83,22.32c-.3,8.1-3.22,15.26-11.41,18.65-8.8,3.63-16.6,6.21-27.65,6.29l-161.78,1.16c-18.72.13-36.37.51-54.86,0l-33.63-.95c-21.24-.6-41.47-.76-61.78,8.78l-41.28,19.38c-9.85,4.62-21.63,7.93-34.2,13.57l-6.93,3.11-26.13,12.08c-7.19,3.32-12.38,12.61-6.71,19.82,7.12,9.06,36.9,6.02,47.77,5.99l179.27-.44,211.66.1,100.76.28Z"/><path class="cls-2" d="M608.07,681.61l-100.76-.28-211.66-.1-179.27.44c-10.87.03-40.65,3.06-47.77-5.99-5.68-7.21-.49-16.5,6.71-19.82l26.13-12.08,6.93-3.11c12.57-5.65,24.35-8.95,34.2-13.57l41.28-19.38c20.31-9.54,40.54-9.37,61.78-8.78l33.63.95c18.49.52,36.14.14,54.86,0l161.78-1.16c11.04-.08,18.85-2.66,27.65-6.29,8.18-3.38,11.11-10.55,11.41-18.65l.83-22.32c.22-5.87,3.98-24.34,5.71-31.15,2.42-9.54,5.92-19.35,11.14-27.77,10.6-17.09,38.25-38.97,38.59-58.03.16-8.95-4.46-16.08-7.97-23.69-3.28-7.13-7.93-13.17-12.79-19.27l-12.51-15.71c-16.84-21.14-37.64-39.45-61.32-53.24s-92.76-41.09-119.34-36.29c.34,8.04,4.56,13.09,8.29,18.92l12.26,19.15c3.04,4.75,3.98,9.62,4.02,15.28.04,6.28-3.3,13.17-10.44,13.83-12.67,1.16-32.28-1.92-45.16-4.54-16.53-3.36-31.84-8.69-46.02-17.94l-6.05-3.95c-9.28-6.06-16.78-13.58-23.86-22.07l-14.17-17c-2.65-3.18-6.68-5.55-10.18-7.68-5.92-3.6-12.2-5.43-19.4-4.7l-54.13,5.48c-32.44,3.28-47.86,6.37-77.82,20.53-13.29,6.28-26.97,10.24-41.4,13.18-5.27,1.07-10.9,2.27-16.43,2.32-9.12.09-18.55-3.09-25.56-8.84-17.93-14.69-13.23-44.51,5.58-59.84l13.13-10.7c5.6-4.56,11.81-9.06,15.2-15.49,3.06-5.8,2.84-12.69,4.29-19.02,3.25-14.14,7.87-27.97,15.35-40.32,12.86-21.21,24.05-33.58,43.88-48.04l20.94-15.26c39.24-28.6,85.11-39.75,132.59-46.95,21.97-3.33,59.93-4.15,81.84-2.16,18.74,1.7,33.12,3.52,51.35-3.07,16.12-5.83,31.25-21,49.04-29.3,16.53-7.72,33.99-12.5,51.79-16.59,11.09-2.55,24.78-2.09,34.55,2.92,8.57,4.39,15.62,14.08,13.07,24.23-6.67,26.58-32.03,27.1-33.95,57.98-1.23,19.71,11.5,30.64,25.99,41.71,5.01,3.82,9.44,8.37,14.24,12.56,12.34,10.75,31.01,32.01,40.06,46.07,15.76,24.49,30.97,48.94,42.58,75.85,15.13,35.06,25.33,71.08,30.23,108.72l1.62,12.4,3.81,21.24c4.45,24.75,4.35,26.36,24.02,37.85l11.63,6.8c8.63,5.04,27.28,24.28,33.86,32.63,13.45,17.07,21.1,36.66,24.23,57.99,1.36,9.27,3.08,24.23-4.94,30.58-8.61,6.83-17.47,2.94-24.03-3.82-12.44-12.82-30.47-17.11-47.76-18.21-13.92-.89-26.47-4.16-38.38-12.02-3.02,2.45-5.62,5.44-7.94,8.33-5.23,6.53-13.57,7.38-21.04,8.95-25.65,5.39-44.62,20.37-60.51,40.17l-8.95,11.15c-6.49,8.09-14.89,13.06-25.32,15.94-21.01,5.79-43.04,6.6-64.95,5.26l-33.85-2.08c-37.79-2.32-88.38,1.41-129.5.03-14.09-.47-27.72-.49-41.74.02l-28.07,1.03c-10.93.4-21.39,1.35-31.59,5.41-9.94,3.97-19.27,8.24-28.68,13.3l-15,8.07c-.66.36-1.92,1.63-2.29,2.28-.46.81,2.03,2.33,3.13,2.35l33.42.65,94.86-.1,133.35-.78,26.31-1.16,64.73-.41,102.15-.71,32.15-.63,18.49-.39,16.04-.83c-.67-4.53-4.45-5.73-7.48-8.14l-10.15-8.03c-10.89-8.61-14.03-11.16-28.36-12.8l-17.2-1.97-12.84-1.48c-5.24-.61-10.46-1.25-15.24-4.01-1.61-.93-1.71-5.21-1.11-6.92,2.55-7.26,13.79-6.93,21.51-7.42,15.25-.97,37.37-1.91,51.53,2.92,6.49,2.21,11.51,7.75,16.9,11.63l15.26,10.99c11.11,8,22.81,14.54,33.38,23.31,7.49,6.22,11.03,16.52,6.77,25.3-2.09,4.31-7.73,5.11-11.99,5.37-6.27.39-11.85.77-18.11.74l-71.71-.39-15.36-.32ZM428.48,265.43l27.17,8.05c18.6,5.51,50.59,22.4,65.77,34.02l19.86,15.2c11.94,9.14,22.53,19.1,31.89,30.99,12.95,16.45,23.93,33.46,33.98,51.62,7.35,13.27,12.24,30.81,7.52,45.74-3.06,9.68-9.98,17.66-17.61,24.14-21.39,18.17-37.54,49.05-33.21,78.1,4.37-2.25,7.07-3.94,10.26-6.27,9.64-7.05,20.11-13.02,31.69-16.86,7.08-2.35,16.19-2.95,20.49-9.69l8.94-13.99c2.31-3.61,7.24-4.95,10.94-3.83,3.41,1.04,5.97,3.6,8.22,6.7l5.04,6.92c2.58,3.54,8.25,7.01,12.57,7.05l28.34.3c4.25.04,10.27,1.29,14.17,2.67l11.62,4.13c1.25.44,3.12,2.17,4.01,1.58.75-.49,2.28-3.14,1.95-4.34-3.01-10.97-8.45-25.29-16.26-34.62-17.5-20.88-51.2-32.22-65.2-50.9-4.5-6-7.07-14.18-8.41-21.76l-9.68-54.83c-2.72-15.4-6.28-29.96-11.2-44.92l-12.95-39.37c-4.89-14.88-15.42-36.2-22.82-50.77-9.95-19.59-22.74-36.26-37.37-52.68s-30.45-30.37-46.35-45.38c-5.11-4.82-8.95-11.34-12.92-16.91-8.44-11.86-6.9-30.99-2.74-43.88,4.22-13.07,11.88-24.54,21.78-34.13,1.86-1.8,3.6-6.95,1.76-8.68-7.69-3.48-16.17-3.63-24.27-1.77-26.67,6.11-40.83,12.65-62.87,27.91l-21.2,14.69c-15.81,10.96-34.59,14.21-53.1,8.6-18.12-.84-35.54-.2-53.63,1.31l-22.97,1.91c-17.78,1.48-34.53,4.52-51.86,8.42-19.29,4.34-36.97,10.26-54.38,19.46l-28.87,15.26c-9.04,4.78-16.92,10.55-24.83,17.12-7.44,6.18-25.79,28.31-29.27,37.43l-3.62,9.48c-4.35,11.39-4.64,25.49-7.85,39.53-1.85,8.11-23.25,24.51-30.31,30.31-11.23,9.22-15.37,12.88-15.29,25.46.03,4.15,3.28,7.86,7.48,8.02,9.09.34,17.97-.45,26.93-2.71,4.39-1.11,23.31-7.29,26.92-8.93,23.61-10.7,47.51-18.73,73.42-21.94l18.56-2.3,17.31-1.96,26.1-2.09c8.2-.66,16.19.32,24.6,1.6,8.73,1.33,16.03,6.52,21.49,13.77,9.73,12.89,18.84,26.5,31.78,36.68,6.69,5.27,14.18,9.19,21.44,13.74,7.56,4.73,43.81,14.33,44.49,8.73.57-4.71-2.31-8.98-4.71-12.64-5.23-8-9.23-15.97-12.18-25.05-2.4-7.41-5.62-14.54-4.9-22.57.45-5.01,3.12-11.42,8.33-12.79,15.94-4.19,58.82,6.83,76.03,11.93Z"/><path class="cls-1" d="M428.48,265.43c-17.22-5.1-60.09-16.12-76.03-11.93-5.21,1.37-7.88,7.78-8.33,12.79-.73,8.02,2.49,15.16,4.9,22.57,2.95,9.08,6.94,17.05,12.18,25.05,2.4,3.66,5.28,7.93,4.71,12.64-.68,5.6-36.92-4-44.49-8.73-7.26-4.55-14.75-8.47-21.44-13.74-12.94-10.19-22.05-23.79-31.78-36.68-5.46-7.24-12.76-12.44-21.49-13.77-8.41-1.28-16.4-2.26-24.6-1.6l-26.1,2.09-17.31,1.96-18.56,2.3c-25.91,3.21-49.81,11.24-73.42,21.94-3.61,1.64-22.53,7.82-26.92,8.93-8.96,2.26-17.84,3.05-26.93,2.71-4.21-.16-7.45-3.87-7.48-8.02-.08-12.59,4.06-16.25,15.29-25.46,7.07-5.8,28.46-22.2,30.31-30.31,3.21-14.04,3.5-28.13,7.85-39.53l3.62-9.48c3.48-9.12,21.83-31.24,29.27-37.43,7.9-6.57,15.79-12.34,24.83-17.12l28.87-15.26c17.41-9.2,35.09-15.12,54.38-19.46,17.33-3.9,34.09-6.94,51.86-8.42l22.97-1.91c18.09-1.5,35.51-2.15,53.63-1.31,18.51,5.61,37.28,2.35,53.1-8.6l21.2-14.69c22.03-15.26,36.2-21.8,62.87-27.91,8.11-1.86,16.58-1.71,24.27,1.77,1.84,1.73.09,6.88-1.76,8.68-9.9,9.59-17.56,21.05-21.78,34.13-4.16,12.89-5.7,32.02,2.74,43.88,3.97,5.58,7.81,12.09,12.92,16.91,15.9,15.01,31.78,29.01,46.35,45.38s27.42,33.09,37.37,52.68c7.4,14.57,17.93,35.9,22.82,50.77l12.95,39.37c4.92,14.96,8.48,29.52,11.2,44.92l9.68,54.83c1.34,7.58,3.91,15.76,8.41,21.76,14,18.67,47.7,30.02,65.2,50.9,7.82,9.32,13.26,23.65,16.26,34.62.33,1.2-1.21,3.86-1.95,4.34-.89.58-2.76-1.14-4.01-1.58l-11.62-4.13c-3.9-1.39-9.92-2.63-14.17-2.67l-28.34-.3c-4.32-.05-9.99-3.51-12.57-7.05l-5.04-6.92c-2.26-3.1-4.82-5.66-8.22-6.7-3.69-1.12-8.63.22-10.94,3.83l-8.94,13.99c-4.3,6.73-13.41,7.34-20.49,9.69-11.57,3.84-22.05,9.81-31.69,16.86-3.19,2.33-5.89,4.02-10.26,6.27-4.33-29.04,11.82-59.93,33.21-78.1,7.63-6.48,14.55-14.46,17.61-24.14,4.72-14.93-.17-32.47-7.52-45.74-10.05-18.16-21.03-35.17-33.98-51.62-9.36-11.89-19.95-21.85-31.89-30.99l-19.86-15.2c-15.18-11.61-47.17-28.51-65.77-34.02l-27.17-8.05Z"/></svg>